<svg xmlns:svg="http://www.w3.org/2000/svg" xmlns="http://www.w3.org/2000/svg" xmlns:xlink="http://www.w3.org/1999/xlink" version="1.0" width="128" height="128" xml:space="preserve" style=""><rect id="backgroundrect" width="100%" height="100%" x="0" y="0" fill="none" stroke="none"/><g class="currentLayer" style=""><title>Layer 1</title><path fill="#242424" fill-opacity="1" stroke="none" stroke-width="2" stroke-dasharray="none" stroke-linejoin="round" stroke-linecap="butt" stroke-dashoffset="" fill-rule="nonzero" opacity="0.49" marker-start="" marker-mid="" marker-end="" d="M1.1134109497070312,63.20900849576074 C1.1134109497070312,28.380769648155106 29.089193804046253,0.16989618159454412 63.62719732792184,0.16989618159454412 C98.16520085179744,0.16989618159454412 126.14098370613667,28.380769648155106 126.14098370613667,63.20900849576074 C126.14098370613667,98.03724734336639 98.16520085179744,126.24812080992696 63.62719732792184,126.24812080992696 C29.089193804046253,126.24812080992696 1.1134109497070312,98.03724734336639 1.1134109497070312,63.20900849576074 z" id="svg_3" class=""/><g id="svg_1" class="" fill="#ffffff" fill-opacity="1"><path d="M75.4 126.63a11.43 11.43 0 0 1-2.1-22.65 40.9 40.9 0 0 0 30.5-30.6 11.4 11.4 0 1 1 22.27 4.87h.02a63.77 63.77 0 0 1-47.8 48.05v-.02a11.38 11.38 0 0 1-2.93.37z" fill="#ffffff" id="svg_2" fill-opacity="1"/><animateTransform attributeName="transform" type="rotate" from="0 64 64" to="360 64 64" dur="1800ms" repeatCount="indefinite"/></g></g></svg>